<?xml version="1.0" encoding="UTF-8"?>
<svg width="100pt" height="100pt" version="1.1" viewBox="0 0 100 100" xmlns="http://www.w3.org/2000/svg">
 <path d="m50 20c2.7617 0 5 2.2383 5 5v19.996l20 0.003906c2.5625 0 4.6758 1.9297 4.9648 4.418l0.035156 0.58203c0 2.7617-2.2383 5-5 5l-20.004-0.003906 0.003906 20.004c0 2.5625-1.9297 4.6758-4.418 4.9648l-0.58203 0.035156c-2.7617 0-5-2.2383-5-5l-0.003906-20.004-19.996 0.003906c-2.5625 0-4.6758-1.9297-4.9648-4.418l-0.035156-0.58203c0-2.7617 2.2383-5 5-5l20-0.003906v-19.996c0-2.5625 1.9297-4.6758 4.418-4.9648z" fill="#c1185b" fill-rule="evenodd"/>
</svg>
