<?xml version="1.0" encoding="UTF-8"?>
<svg width="100pt" height="100pt" version="1.1" viewBox="0 0 100 100" xmlns="http://www.w3.org/2000/svg">
 <path d="m50 5c24.84 0.027344 44.973 20.16 45 45 0 24.852-20.148 45-45 45s-45-20.148-45-45 20.148-45 45-45zm-0.011719 10c-19.316 0-34.988 15.672-34.988 35s15.672 35 35 35 35-15.672 35-34.988c-0.019531-18.926-15.039-34.336-33.809-34.988zm0.011719 10c2.5625 0 4.6758 1.9297 4.9648 4.418l0.035156 0.58203v17.32l12.773 8.5195c2.1328 1.4219 2.8203 4.1992 1.6836 6.4297l-0.29688 0.50391c-1.4219 2.1328-4.1992 2.8203-6.4297 1.6836l-0.50391-0.29688-17.227-11.484v-22.676c0-2.7617 2.2383-5 5-5z" fill="#c1185b"/>
</svg>
