<?xml version="1.0" encoding="UTF-8"?>
<svg width="100pt" height="100pt" version="1.1" viewBox="0 0 100 100" xmlns="http://www.w3.org/2000/svg">
 <path d="m50 5c24.84 0.027344 44.973 20.16 45 45 0 24.852-20.148 45-45 45s-45-20.148-45-45 20.148-45 45-45zm-0.011719 10c-19.316 0-34.988 15.672-34.988 35s15.672 35 35 35 35-15.672 35-34.988c-0.019531-18.926-15.039-34.336-33.809-34.988zm19.758 40.945c2.3711 1.4141 3.1484 4.4844 1.7305 6.8555-4.4766 7.5-12.574 12.199-21.477 12.199-8.7383 0-16.703-4.5234-21.234-11.801-1.4609-2.3438-0.74219-5.4258 1.6016-6.8867s5.4297-0.74219 6.8867 1.6016c2.7266 4.375 7.5 7.0859 12.746 7.0859 5.3477 0 10.199-2.8164 12.891-7.3242 1.418-2.3711 4.4844-3.1484 6.8555-1.7305zm-32.246-25.945c4.1406 0 7.5 3.3594 7.5 7.5s-3.3594 7.5-7.5 7.5-7.5-3.3594-7.5-7.5 3.3594-7.5 7.5-7.5zm25 0c4.1406 0 7.5 3.3594 7.5 7.5s-3.3594 7.5-7.5 7.5-7.5-3.3594-7.5-7.5 3.3594-7.5 7.5-7.5z" fill="#c1185b" fill-rule="evenodd"/>
</svg>
