<?xml version="1.0" encoding="UTF-8"?>
<svg width="100pt" height="100pt" version="1.1" viewBox="0 0 100 100" xmlns="http://www.w3.org/2000/svg">
 <g fill="#fff">
  <path d="m65.18 43.516h-13.395v-13.395c0-0.98828-0.80078-1.7852-1.7852-1.7852s-1.7852 0.79687-1.7852 1.7852v13.395h-13.395c-0.98437 0-1.7852 0.79688-1.7852 1.7852s0.80078 1.7852 1.7852 1.7852h13.395v13.395c0 0.98828 0.80078 1.7852 1.7852 1.7852s1.7852-0.79688 1.7852-1.7852v-13.395h13.395c0.98437 0 1.7852-0.79688 1.7852-1.7852s-0.80078-1.7852-1.7852-1.7852z"/>
  <path d="m50 11.223c-24.617 0-44.645 15.285-44.645 34.078 0 15.602 13.711 29.105 33.414 32.988l9.9648 9.9648c0.33594 0.33594 0.78906 0.52344 1.2617 0.52344s0.92578-0.1875 1.2617-0.52344l9.9648-9.9648c19.707-3.8828 33.422-17.387 33.422-32.988 0-18.789-20.027-34.078-44.645-34.078zm10.023 63.66c-0.35547 0.066407-0.67969 0.23828-0.93359 0.49219l-9.0898 9.0898-9.0898-9.0898c-0.25391-0.25391-0.58203-0.42578-0.93359-0.49219-18.281-3.418-31.047-15.582-31.047-29.582 0-16.82 18.422-30.508 41.07-30.508s41.07 13.684 41.07 30.504c0 14.004-12.766 26.168-31.047 29.586z"/>
 </g>
</svg>
