<?xml version="1.0" encoding="UTF-8"?>
<svg width="100pt" height="100pt" version="1.1" viewBox="0 0 100 100" xmlns="http://www.w3.org/2000/svg">
 <g fill="#fff">
  <path d="m50 5.3555c-24.617 0-44.645 20.027-44.645 44.645s20.027 44.645 44.645 44.645 44.641-20.027 44.645-44.641v-0.003906c0-24.617-20.027-44.645-44.645-44.645zm1.7852 85.672v-6.7031c0-0.98828-0.80078-1.7852-1.7852-1.7852s-1.7852 0.79688-1.7852 1.7852v6.7031c-21.23-0.91406-38.328-18.012-39.242-39.242h6.7031c0.98438 0 1.7852-0.79688 1.7852-1.7852s-0.80078-1.7852-1.7852-1.7852h-6.7031c0.91406-21.23 18.012-38.328 39.242-39.242v6.7031c0 0.98828 0.80078 1.7852 1.7852 1.7852s1.7852-0.79688 1.7852-1.7852v-6.7031c21.23 0.91406 38.328 18.012 39.242 39.242h-6.7031c-0.98438 0-1.7852 0.79688-1.7852 1.7852s0.80078 1.7852 1.7852 1.7852h6.7031c-0.91406 21.23-18.016 38.328-39.242 39.242z"/>
  <path d="m51.785 41.457v-17.445c0-0.98828-0.80078-1.7852-1.7852-1.7852s-1.7852 0.79688-1.7852 1.7852v17.445c-3.3828 0.70703-6.0508 3.375-6.7578 6.7578h-11.742c-0.98438 0-1.7852 0.79688-1.7852 1.7852s0.80078 1.7852 1.7852 1.7852h11.742c0.82812 3.9609 4.3438 6.9453 8.543 6.9453 4.8164 0 8.7305-3.918 8.7305-8.7305 0-4.1992-2.9844-7.7148-6.9453-8.543zm-1.7852 13.703c-2.8438 0-5.1602-2.3125-5.1602-5.1602 0-2.8438 2.3125-5.1602 5.1602-5.1602 2.8438 0 5.1602 2.3164 5.1602 5.1602 0 2.8477-2.3164 5.1602-5.1602 5.1602z"/>
 </g>
</svg>
