<?xml version="1.0" encoding="UTF-8"?>
<svg width="100pt" height="100pt" version="1.1" viewBox="0 0 100 100" xmlns="http://www.w3.org/2000/svg">
 <g fill="#fff">
  <path d="m94.645 7.1445c0-0.98828-0.80078-1.7852-1.7852-1.7852l-70.215-0.003906c-0.98438 0-1.7852 0.79688-1.7852 1.7852v41.074h-13.715c-0.98438 0-1.7852 0.79688-1.7852 1.7852s0.80078 1.7852 1.7852 1.7852h13.715v41.07c0 0.98828 0.80078 1.7852 1.7852 1.7852l70.211 0.003906c0.98438 0 1.7852-0.79688 1.7852-1.7852zm-3.5742 83.926h-66.641v-39.281h3.5703l0.003906 33.926c0 0.98828 0.80078 1.7852 1.7852 1.7852h55.926c0.98438 0 1.7852-0.79688 1.7852-1.7852v-71.43c0-0.98828-0.80078-1.7852-1.7852-1.7852h-55.926c-0.98437 0-1.7852 0.79688-1.7852 1.7852v33.93h-3.5703l-0.003906-39.285h66.641zm-54.398-31.547c0.34766 0.34766 0.80469 0.52344 1.2617 0.52344 0.45703 0 0.91406-0.17578 1.2617-0.52344l8.2578-8.2578c0.69922-0.69922 0.69922-1.8281 0-2.5234l-8.2578-8.2578c-0.69922-0.69922-1.8281-0.69922-2.5234 0-0.69922 0.69922-0.69922 1.8281 0 2.5234l5.2109 5.2109h-10.309v-32.148h52.355v67.855l-52.355 0.003907v-32.141h10.309l-5.2109 5.2109c-0.69531 0.69531-0.69531 1.8242 0 2.5234z"/>
  <path d="m73.09 56.668c3.6758 0 6.668-2.9922 6.668-6.668s-2.9922-6.668-6.668-6.668c-3.6758 0-6.668 2.9922-6.668 6.668 0 3.6797 2.9922 6.668 6.668 6.668zm0-9.7617c1.707 0 3.0977 1.3867 3.0977 3.0938s-1.3906 3.0977-3.0977 3.0977c-1.707 0-3.0938-1.3906-3.0938-3.0977s1.3867-3.0938 3.0938-3.0938z"/>
 </g>
</svg>
