<?xml version="1.0" encoding="UTF-8"?>
<svg width="100pt" height="100pt" version="1.1" viewBox="0 0 100 100" xmlns="http://www.w3.org/2000/svg">
 <g fill="#fff">
  <path d="m50 5.3555c-24.617 0-44.645 20.027-44.645 44.645s20.027 44.645 44.645 44.645 44.645-20.027 44.645-44.645-20.027-44.645-44.645-44.645zm0 85.715c-22.648 0-41.07-18.422-41.07-41.07s18.422-41.07 41.07-41.07 41.07 18.426 41.07 41.07c0 22.648-18.422 41.07-41.07 41.07z"/>
  <path d="m71.082 35.582c-4.9531 0-8.9805 4.0273-8.9805 8.9805 0 4.9492 4.0273 8.9805 8.9805 8.9805s8.9805-4.0273 8.9805-8.9805c0-4.9492-4.0273-8.9805-8.9805-8.9805zm0 14.391c-2.9805 0-5.4102-2.4258-5.4102-5.4062 0-2.9805 2.4258-5.4102 5.4102-5.4102 2.9805 0 5.4102 2.4258 5.4102 5.4102 0 2.9805-2.4297 5.4062-5.4102 5.4062z"/>
  <path d="m28.918 35.582c-4.9531 0-8.9805 4.0273-8.9805 8.9805 0 4.9492 4.0273 8.9805 8.9805 8.9805s8.9805-4.0273 8.9805-8.9805c0-4.9492-4.0273-8.9805-8.9805-8.9805zm0 14.391c-2.9805 0-5.4102-2.4258-5.4102-5.4062 0-2.9805 2.4258-5.4102 5.4102-5.4102 2.9805 0 5.4102 2.4258 5.4102 5.4102 0 2.9805-2.4297 5.4062-5.4102 5.4062z"/>
  <path d="m62.277 59.281h-24.555c-0.98438 0-1.7852 0.79688-1.7852 1.7852 0 7.7539 6.3086 14.062 14.062 14.062s14.062-6.3086 14.062-14.062c0-0.98828-0.80078-1.7852-1.7852-1.7852zm-12.277 12.277c-5.1758 0-9.4883-3.7695-10.34-8.707h20.68c-0.85156 4.9375-5.1641 8.707-10.34 8.707z"/>
 </g>
</svg>
